<mxfile host="app.diagrams.net" modified="2020-12-26T05:58:14.047Z" agent="5.0 (Windows NT 10.0; Win64; x64) AppleWebKit/537.36 (KHTML, like Gecko) Chrome/87.0.4280.88 Safari/537.36" etag="cOiwvIUBws7ImYpCFyi2" version="14.1.2" type="github">
  <diagram id="C5RBs43oDa-KdzZeNtuy" name="Page-1">
    <mxGraphModel dx="2249" dy="762" grid="1" gridSize="10" guides="1" tooltips="1" connect="1" arrows="1" fold="1" page="1" pageScale="1" pageWidth="827" pageHeight="1169" math="0" shadow="0">
      <root>
        <mxCell id="WIyWlLk6GJQsqaUBKTNV-0" />
        <mxCell id="WIyWlLk6GJQsqaUBKTNV-1" parent="WIyWlLk6GJQsqaUBKTNV-0" />
        <mxCell id="zkfFHV4jXpPFQw0GAbJ--0" value="医技申请单" style="swimlane;fontStyle=2;align=center;verticalAlign=top;childLayout=stackLayout;horizontal=1;startSize=26;horizontalStack=0;resizeParent=1;resizeLast=0;collapsible=1;marginBottom=0;rounded=0;shadow=0;strokeWidth=1;" parent="WIyWlLk6GJQsqaUBKTNV-1" vertex="1">
          <mxGeometry x="220" y="120" width="160" height="138" as="geometry">
            <mxRectangle x="230" y="140" width="160" height="26" as="alternateBounds" />
          </mxGeometry>
        </mxCell>
        <mxCell id="zkfFHV4jXpPFQw0GAbJ--1" value="申请单ID" style="text;align=left;verticalAlign=top;spacingLeft=4;spacingRight=4;overflow=hidden;rotatable=0;points=[[0,0.5],[1,0.5]];portConstraint=eastwest;" parent="zkfFHV4jXpPFQw0GAbJ--0" vertex="1">
          <mxGeometry y="26" width="160" height="26" as="geometry" />
        </mxCell>
        <mxCell id="zkfFHV4jXpPFQw0GAbJ--4" value="" style="line;html=1;strokeWidth=1;align=left;verticalAlign=middle;spacingTop=-1;spacingLeft=3;spacingRight=3;rotatable=0;labelPosition=right;points=[];portConstraint=eastwest;" parent="zkfFHV4jXpPFQw0GAbJ--0" vertex="1">
          <mxGeometry y="52" width="160" height="8" as="geometry" />
        </mxCell>
        <mxCell id="zkfFHV4jXpPFQw0GAbJ--5" value="医嘱ID" style="text;align=left;verticalAlign=top;spacingLeft=4;spacingRight=4;overflow=hidden;rotatable=0;points=[[0,0.5],[1,0.5]];portConstraint=eastwest;" parent="zkfFHV4jXpPFQw0GAbJ--0" vertex="1">
          <mxGeometry y="60" width="160" height="26" as="geometry" />
        </mxCell>
        <mxCell id="zkfFHV4jXpPFQw0GAbJ--6" value="预约信息" style="swimlane;fontStyle=0;align=center;verticalAlign=top;childLayout=stackLayout;horizontal=1;startSize=26;horizontalStack=0;resizeParent=1;resizeLast=0;collapsible=1;marginBottom=0;rounded=0;shadow=0;strokeWidth=1;" parent="WIyWlLk6GJQsqaUBKTNV-1" vertex="1">
          <mxGeometry x="-159" y="360" width="160" height="138" as="geometry">
            <mxRectangle x="130" y="380" width="160" height="26" as="alternateBounds" />
          </mxGeometry>
        </mxCell>
        <mxCell id="zkfFHV4jXpPFQw0GAbJ--7" value="预约ID" style="text;align=left;verticalAlign=top;spacingLeft=4;spacingRight=4;overflow=hidden;rotatable=0;points=[[0,0.5],[1,0.5]];portConstraint=eastwest;" parent="zkfFHV4jXpPFQw0GAbJ--6" vertex="1">
          <mxGeometry y="26" width="160" height="26" as="geometry" />
        </mxCell>
        <mxCell id="zkfFHV4jXpPFQw0GAbJ--9" value="" style="line;html=1;strokeWidth=1;align=left;verticalAlign=middle;spacingTop=-1;spacingLeft=3;spacingRight=3;rotatable=0;labelPosition=right;points=[];portConstraint=eastwest;" parent="zkfFHV4jXpPFQw0GAbJ--6" vertex="1">
          <mxGeometry y="52" width="160" height="8" as="geometry" />
        </mxCell>
        <mxCell id="zkfFHV4jXpPFQw0GAbJ--10" value="申请单ID" style="text;align=left;verticalAlign=top;spacingLeft=4;spacingRight=4;overflow=hidden;rotatable=0;points=[[0,0.5],[1,0.5]];portConstraint=eastwest;fontStyle=4" parent="zkfFHV4jXpPFQw0GAbJ--6" vertex="1">
          <mxGeometry y="60" width="160" height="26" as="geometry" />
        </mxCell>
        <mxCell id="FMQ1t8g7UjHm1A0s9ffQ-0" value="号源ID" style="text;align=left;verticalAlign=top;spacingLeft=4;spacingRight=4;overflow=hidden;rotatable=0;points=[[0,0.5],[1,0.5]];portConstraint=eastwest;fontStyle=4" vertex="1" parent="zkfFHV4jXpPFQw0GAbJ--6">
          <mxGeometry y="86" width="160" height="26" as="geometry" />
        </mxCell>
        <mxCell id="zkfFHV4jXpPFQw0GAbJ--17" value="医嘱" style="swimlane;fontStyle=0;align=center;verticalAlign=top;childLayout=stackLayout;horizontal=1;startSize=26;horizontalStack=0;resizeParent=1;resizeLast=0;collapsible=1;marginBottom=0;rounded=0;shadow=0;strokeWidth=1;" parent="WIyWlLk6GJQsqaUBKTNV-1" vertex="1">
          <mxGeometry x="508" y="120" width="160" height="110" as="geometry">
            <mxRectangle x="550" y="140" width="160" height="26" as="alternateBounds" />
          </mxGeometry>
        </mxCell>
        <mxCell id="zkfFHV4jXpPFQw0GAbJ--18" value="医嘱ID" style="text;align=left;verticalAlign=top;spacingLeft=4;spacingRight=4;overflow=hidden;rotatable=0;points=[[0,0.5],[1,0.5]];portConstraint=eastwest;" parent="zkfFHV4jXpPFQw0GAbJ--17" vertex="1">
          <mxGeometry y="26" width="160" height="26" as="geometry" />
        </mxCell>
        <mxCell id="zkfFHV4jXpPFQw0GAbJ--23" value="" style="line;html=1;strokeWidth=1;align=left;verticalAlign=middle;spacingTop=-1;spacingLeft=3;spacingRight=3;rotatable=0;labelPosition=right;points=[];portConstraint=eastwest;" parent="zkfFHV4jXpPFQw0GAbJ--17" vertex="1">
          <mxGeometry y="52" width="160" height="8" as="geometry" />
        </mxCell>
        <mxCell id="zkfFHV4jXpPFQw0GAbJ--25" value="患者ID" style="text;align=left;verticalAlign=top;spacingLeft=4;spacingRight=4;overflow=hidden;rotatable=0;points=[[0,0.5],[1,0.5]];portConstraint=eastwest;" parent="zkfFHV4jXpPFQw0GAbJ--17" vertex="1">
          <mxGeometry y="60" width="160" height="26" as="geometry" />
        </mxCell>
        <mxCell id="zkfFHV4jXpPFQw0GAbJ--26" value="" style="endArrow=open;shadow=0;strokeWidth=1;rounded=0;endFill=1;edgeStyle=elbowEdgeStyle;elbow=vertical;entryX=1;entryY=0.5;entryDx=0;entryDy=0;exitX=0;exitY=0.5;exitDx=0;exitDy=0;" parent="WIyWlLk6GJQsqaUBKTNV-1" source="zkfFHV4jXpPFQw0GAbJ--25" target="zkfFHV4jXpPFQw0GAbJ--5" edge="1">
          <mxGeometry x="0.5" y="41" relative="1" as="geometry">
            <mxPoint x="400" y="40" as="sourcePoint" />
            <mxPoint x="540" y="192" as="targetPoint" />
            <mxPoint x="-40" y="32" as="offset" />
          </mxGeometry>
        </mxCell>
        <mxCell id="zkfFHV4jXpPFQw0GAbJ--27" value="1" style="resizable=0;align=left;verticalAlign=bottom;labelBackgroundColor=none;fontSize=12;" parent="zkfFHV4jXpPFQw0GAbJ--26" connectable="0" vertex="1">
          <mxGeometry x="-1" relative="1" as="geometry">
            <mxPoint x="-18" y="-3" as="offset" />
          </mxGeometry>
        </mxCell>
        <mxCell id="zkfFHV4jXpPFQw0GAbJ--28" value="0..1" style="resizable=0;align=right;verticalAlign=bottom;labelBackgroundColor=none;fontSize=12;" parent="zkfFHV4jXpPFQw0GAbJ--26" connectable="0" vertex="1">
          <mxGeometry x="1" relative="1" as="geometry">
            <mxPoint x="34" y="-3" as="offset" />
          </mxGeometry>
        </mxCell>
        <mxCell id="FMQ1t8g7UjHm1A0s9ffQ-6" value="医技报告" style="swimlane;fontStyle=0;align=center;verticalAlign=top;childLayout=stackLayout;horizontal=1;startSize=26;horizontalStack=0;resizeParent=1;resizeLast=0;collapsible=1;marginBottom=0;rounded=0;shadow=0;strokeWidth=1;" vertex="1" parent="WIyWlLk6GJQsqaUBKTNV-1">
          <mxGeometry x="252" y="360" width="160" height="138" as="geometry">
            <mxRectangle x="130" y="380" width="160" height="26" as="alternateBounds" />
          </mxGeometry>
        </mxCell>
        <mxCell id="FMQ1t8g7UjHm1A0s9ffQ-7" value="报告ID" style="text;align=left;verticalAlign=top;spacingLeft=4;spacingRight=4;overflow=hidden;rotatable=0;points=[[0,0.5],[1,0.5]];portConstraint=eastwest;" vertex="1" parent="FMQ1t8g7UjHm1A0s9ffQ-6">
          <mxGeometry y="26" width="160" height="26" as="geometry" />
        </mxCell>
        <mxCell id="FMQ1t8g7UjHm1A0s9ffQ-8" value="" style="line;html=1;strokeWidth=1;align=left;verticalAlign=middle;spacingTop=-1;spacingLeft=3;spacingRight=3;rotatable=0;labelPosition=right;points=[];portConstraint=eastwest;" vertex="1" parent="FMQ1t8g7UjHm1A0s9ffQ-6">
          <mxGeometry y="52" width="160" height="8" as="geometry" />
        </mxCell>
        <mxCell id="FMQ1t8g7UjHm1A0s9ffQ-9" value="申请单ID" style="text;align=left;verticalAlign=top;spacingLeft=4;spacingRight=4;overflow=hidden;rotatable=0;points=[[0,0.5],[1,0.5]];portConstraint=eastwest;fontStyle=4" vertex="1" parent="FMQ1t8g7UjHm1A0s9ffQ-6">
          <mxGeometry y="60" width="160" height="26" as="geometry" />
        </mxCell>
        <mxCell id="FMQ1t8g7UjHm1A0s9ffQ-24" value="" style="endArrow=classic;html=1;exitX=0.5;exitY=1;exitDx=0;exitDy=0;entryX=0.5;entryY=0;entryDx=0;entryDy=0;" edge="1" parent="WIyWlLk6GJQsqaUBKTNV-1" source="zkfFHV4jXpPFQw0GAbJ--0" target="zkfFHV4jXpPFQw0GAbJ--6">
          <mxGeometry relative="1" as="geometry">
            <mxPoint x="180" y="310" as="sourcePoint" />
            <mxPoint x="280" y="310" as="targetPoint" />
          </mxGeometry>
        </mxCell>
        <mxCell id="FMQ1t8g7UjHm1A0s9ffQ-25" value="预约" style="edgeLabel;resizable=0;html=1;align=center;verticalAlign=middle;" connectable="0" vertex="1" parent="FMQ1t8g7UjHm1A0s9ffQ-24">
          <mxGeometry relative="1" as="geometry" />
        </mxCell>
        <mxCell id="FMQ1t8g7UjHm1A0s9ffQ-29" value="1" style="edgeLabel;html=1;align=center;verticalAlign=middle;resizable=0;points=[];" vertex="1" connectable="0" parent="FMQ1t8g7UjHm1A0s9ffQ-24">
          <mxGeometry x="-0.812" y="-1" relative="1" as="geometry">
            <mxPoint as="offset" />
          </mxGeometry>
        </mxCell>
        <mxCell id="FMQ1t8g7UjHm1A0s9ffQ-32" value="0..*" style="edgeLabel;html=1;align=center;verticalAlign=middle;resizable=0;points=[];" vertex="1" connectable="0" parent="FMQ1t8g7UjHm1A0s9ffQ-24">
          <mxGeometry x="0.792" y="-1" relative="1" as="geometry">
            <mxPoint x="-11" y="-8" as="offset" />
          </mxGeometry>
        </mxCell>
        <mxCell id="FMQ1t8g7UjHm1A0s9ffQ-26" value="" style="endArrow=classic;html=1;entryX=0.5;entryY=0;entryDx=0;entryDy=0;" edge="1" parent="WIyWlLk6GJQsqaUBKTNV-1" target="FMQ1t8g7UjHm1A0s9ffQ-6">
          <mxGeometry relative="1" as="geometry">
            <mxPoint x="300" y="260" as="sourcePoint" />
            <mxPoint x="240" y="370" as="targetPoint" />
          </mxGeometry>
        </mxCell>
        <mxCell id="FMQ1t8g7UjHm1A0s9ffQ-31" value="1" style="edgeLabel;html=1;align=center;verticalAlign=middle;resizable=0;points=[];" vertex="1" connectable="0" parent="FMQ1t8g7UjHm1A0s9ffQ-26">
          <mxGeometry x="-0.7529" y="-1" relative="1" as="geometry">
            <mxPoint as="offset" />
          </mxGeometry>
        </mxCell>
        <mxCell id="FMQ1t8g7UjHm1A0s9ffQ-33" value="0..*" style="edgeLabel;html=1;align=center;verticalAlign=middle;resizable=0;points=[];" vertex="1" connectable="0" parent="FMQ1t8g7UjHm1A0s9ffQ-26">
          <mxGeometry x="0.743" relative="1" as="geometry">
            <mxPoint x="9" y="-8" as="offset" />
          </mxGeometry>
        </mxCell>
        <mxCell id="FMQ1t8g7UjHm1A0s9ffQ-28" value="报告" style="edgeLabel;resizable=0;html=1;align=center;verticalAlign=middle;" connectable="0" vertex="1" parent="WIyWlLk6GJQsqaUBKTNV-1">
          <mxGeometry x="-66.99507017575004" y="329.9991715792651" as="geometry">
            <mxPoint x="247" y="-21" as="offset" />
          </mxGeometry>
        </mxCell>
        <mxCell id="FMQ1t8g7UjHm1A0s9ffQ-34" value="签到信息" style="swimlane;fontStyle=0;align=center;verticalAlign=top;childLayout=stackLayout;horizontal=1;startSize=26;horizontalStack=0;resizeParent=1;resizeLast=0;collapsible=1;marginBottom=0;rounded=0;shadow=0;strokeWidth=1;" vertex="1" parent="WIyWlLk6GJQsqaUBKTNV-1">
          <mxGeometry x="44" y="360" width="160" height="138" as="geometry">
            <mxRectangle x="130" y="380" width="160" height="26" as="alternateBounds" />
          </mxGeometry>
        </mxCell>
        <mxCell id="FMQ1t8g7UjHm1A0s9ffQ-35" value="签到ID" style="text;align=left;verticalAlign=top;spacingLeft=4;spacingRight=4;overflow=hidden;rotatable=0;points=[[0,0.5],[1,0.5]];portConstraint=eastwest;" vertex="1" parent="FMQ1t8g7UjHm1A0s9ffQ-34">
          <mxGeometry y="26" width="160" height="26" as="geometry" />
        </mxCell>
        <mxCell id="FMQ1t8g7UjHm1A0s9ffQ-36" value="" style="line;html=1;strokeWidth=1;align=left;verticalAlign=middle;spacingTop=-1;spacingLeft=3;spacingRight=3;rotatable=0;labelPosition=right;points=[];portConstraint=eastwest;" vertex="1" parent="FMQ1t8g7UjHm1A0s9ffQ-34">
          <mxGeometry y="52" width="160" height="8" as="geometry" />
        </mxCell>
        <mxCell id="FMQ1t8g7UjHm1A0s9ffQ-37" value="申请单ID" style="text;align=left;verticalAlign=top;spacingLeft=4;spacingRight=4;overflow=hidden;rotatable=0;points=[[0,0.5],[1,0.5]];portConstraint=eastwest;fontStyle=4" vertex="1" parent="FMQ1t8g7UjHm1A0s9ffQ-34">
          <mxGeometry y="60" width="160" height="26" as="geometry" />
        </mxCell>
        <mxCell id="FMQ1t8g7UjHm1A0s9ffQ-41" value="" style="endArrow=classic;html=1;entryX=0.5;entryY=0;entryDx=0;entryDy=0;" edge="1" parent="WIyWlLk6GJQsqaUBKTNV-1" target="FMQ1t8g7UjHm1A0s9ffQ-34">
          <mxGeometry relative="1" as="geometry">
            <mxPoint x="302" y="260" as="sourcePoint" />
            <mxPoint x="108" y="370" as="targetPoint" />
          </mxGeometry>
        </mxCell>
        <mxCell id="FMQ1t8g7UjHm1A0s9ffQ-42" value="预约" style="edgeLabel;resizable=0;html=1;align=center;verticalAlign=middle;" connectable="0" vertex="1" parent="FMQ1t8g7UjHm1A0s9ffQ-41">
          <mxGeometry relative="1" as="geometry" />
        </mxCell>
        <mxCell id="FMQ1t8g7UjHm1A0s9ffQ-43" value="1" style="edgeLabel;html=1;align=center;verticalAlign=middle;resizable=0;points=[];" vertex="1" connectable="0" parent="FMQ1t8g7UjHm1A0s9ffQ-41">
          <mxGeometry x="-0.812" y="-1" relative="1" as="geometry">
            <mxPoint as="offset" />
          </mxGeometry>
        </mxCell>
        <mxCell id="FMQ1t8g7UjHm1A0s9ffQ-44" value="0..*" style="edgeLabel;html=1;align=center;verticalAlign=middle;resizable=0;points=[];" vertex="1" connectable="0" parent="FMQ1t8g7UjHm1A0s9ffQ-41">
          <mxGeometry x="0.792" y="-1" relative="1" as="geometry">
            <mxPoint x="-11" y="-8" as="offset" />
          </mxGeometry>
        </mxCell>
        <mxCell id="FMQ1t8g7UjHm1A0s9ffQ-45" value="危急值" style="swimlane;fontStyle=0;align=center;verticalAlign=top;childLayout=stackLayout;horizontal=1;startSize=26;horizontalStack=0;resizeParent=1;resizeLast=0;collapsible=1;marginBottom=0;rounded=0;shadow=0;strokeWidth=1;" vertex="1" parent="WIyWlLk6GJQsqaUBKTNV-1">
          <mxGeometry x="463" y="360.82" width="160" height="138" as="geometry">
            <mxRectangle x="130" y="380" width="160" height="26" as="alternateBounds" />
          </mxGeometry>
        </mxCell>
        <mxCell id="FMQ1t8g7UjHm1A0s9ffQ-46" value="危急值主体ID" style="text;align=left;verticalAlign=top;spacingLeft=4;spacingRight=4;overflow=hidden;rotatable=0;points=[[0,0.5],[1,0.5]];portConstraint=eastwest;" vertex="1" parent="FMQ1t8g7UjHm1A0s9ffQ-45">
          <mxGeometry y="26" width="160" height="26" as="geometry" />
        </mxCell>
        <mxCell id="FMQ1t8g7UjHm1A0s9ffQ-47" value="" style="line;html=1;strokeWidth=1;align=left;verticalAlign=middle;spacingTop=-1;spacingLeft=3;spacingRight=3;rotatable=0;labelPosition=right;points=[];portConstraint=eastwest;" vertex="1" parent="FMQ1t8g7UjHm1A0s9ffQ-45">
          <mxGeometry y="52" width="160" height="8" as="geometry" />
        </mxCell>
        <mxCell id="FMQ1t8g7UjHm1A0s9ffQ-48" value="申请单ID" style="text;align=left;verticalAlign=top;spacingLeft=4;spacingRight=4;overflow=hidden;rotatable=0;points=[[0,0.5],[1,0.5]];portConstraint=eastwest;fontStyle=4" vertex="1" parent="FMQ1t8g7UjHm1A0s9ffQ-45">
          <mxGeometry y="60" width="160" height="26" as="geometry" />
        </mxCell>
        <mxCell id="FMQ1t8g7UjHm1A0s9ffQ-49" value="0..1" style="edgeLabel;html=1;align=center;verticalAlign=middle;resizable=0;points=[];" vertex="1" connectable="0" parent="WIyWlLk6GJQsqaUBKTNV-1">
          <mxGeometry x="556.2163557982963" y="340.0048592336346" as="geometry">
            <mxPoint x="-20" y="3" as="offset" />
          </mxGeometry>
        </mxCell>
        <mxCell id="FMQ1t8g7UjHm1A0s9ffQ-50" value="" style="endArrow=classic;html=1;entryX=0.5;entryY=0;entryDx=0;entryDy=0;" edge="1" parent="WIyWlLk6GJQsqaUBKTNV-1" target="FMQ1t8g7UjHm1A0s9ffQ-45">
          <mxGeometry relative="1" as="geometry">
            <mxPoint x="300" y="260" as="sourcePoint" />
            <mxPoint x="720" y="360" as="targetPoint" />
          </mxGeometry>
        </mxCell>
        <mxCell id="FMQ1t8g7UjHm1A0s9ffQ-51" value="1" style="edgeLabel;html=1;align=center;verticalAlign=middle;resizable=0;points=[];" vertex="1" connectable="0" parent="FMQ1t8g7UjHm1A0s9ffQ-50">
          <mxGeometry x="-0.7529" y="-1" relative="1" as="geometry">
            <mxPoint as="offset" />
          </mxGeometry>
        </mxCell>
        <mxCell id="FMQ1t8g7UjHm1A0s9ffQ-53" value="危急值" style="swimlane;fontStyle=0;align=center;verticalAlign=top;childLayout=stackLayout;horizontal=1;startSize=26;horizontalStack=0;resizeParent=1;resizeLast=0;collapsible=1;marginBottom=0;rounded=0;shadow=0;strokeWidth=1;" vertex="1" parent="WIyWlLk6GJQsqaUBKTNV-1">
          <mxGeometry x="680" y="360.82" width="160" height="138" as="geometry">
            <mxRectangle x="130" y="380" width="160" height="26" as="alternateBounds" />
          </mxGeometry>
        </mxCell>
        <mxCell id="FMQ1t8g7UjHm1A0s9ffQ-54" value="危急值主体ID" style="text;align=left;verticalAlign=top;spacingLeft=4;spacingRight=4;overflow=hidden;rotatable=0;points=[[0,0.5],[1,0.5]];portConstraint=eastwest;" vertex="1" parent="FMQ1t8g7UjHm1A0s9ffQ-53">
          <mxGeometry y="26" width="160" height="26" as="geometry" />
        </mxCell>
        <mxCell id="FMQ1t8g7UjHm1A0s9ffQ-55" value="" style="line;html=1;strokeWidth=1;align=left;verticalAlign=middle;spacingTop=-1;spacingLeft=3;spacingRight=3;rotatable=0;labelPosition=right;points=[];portConstraint=eastwest;" vertex="1" parent="FMQ1t8g7UjHm1A0s9ffQ-53">
          <mxGeometry y="52" width="160" height="8" as="geometry" />
        </mxCell>
        <mxCell id="FMQ1t8g7UjHm1A0s9ffQ-56" value="申请单ID" style="text;align=left;verticalAlign=top;spacingLeft=4;spacingRight=4;overflow=hidden;rotatable=0;points=[[0,0.5],[1,0.5]];portConstraint=eastwest;fontStyle=4" vertex="1" parent="FMQ1t8g7UjHm1A0s9ffQ-53">
          <mxGeometry y="60" width="160" height="26" as="geometry" />
        </mxCell>
        <mxCell id="FMQ1t8g7UjHm1A0s9ffQ-57" value="0..1" style="edgeLabel;html=1;align=center;verticalAlign=middle;resizable=0;points=[];" vertex="1" connectable="0" parent="WIyWlLk6GJQsqaUBKTNV-1">
          <mxGeometry x="773.2163557982963" y="340.0048592336346" as="geometry">
            <mxPoint x="-20" y="3" as="offset" />
          </mxGeometry>
        </mxCell>
        <mxCell id="FMQ1t8g7UjHm1A0s9ffQ-288" value="医技申请单" style="swimlane;fontStyle=2;align=center;verticalAlign=top;childLayout=stackLayout;horizontal=1;startSize=26;horizontalStack=0;resizeParent=1;resizeLast=0;collapsible=1;marginBottom=0;rounded=0;shadow=0;strokeWidth=1;" vertex="1" parent="WIyWlLk6GJQsqaUBKTNV-1">
          <mxGeometry x="199" y="750" width="160" height="138" as="geometry">
            <mxRectangle x="230" y="140" width="160" height="26" as="alternateBounds" />
          </mxGeometry>
        </mxCell>
        <mxCell id="FMQ1t8g7UjHm1A0s9ffQ-289" value="申请单ID" style="text;align=left;verticalAlign=top;spacingLeft=4;spacingRight=4;overflow=hidden;rotatable=0;points=[[0,0.5],[1,0.5]];portConstraint=eastwest;" vertex="1" parent="FMQ1t8g7UjHm1A0s9ffQ-288">
          <mxGeometry y="26" width="160" height="26" as="geometry" />
        </mxCell>
        <mxCell id="FMQ1t8g7UjHm1A0s9ffQ-290" value="" style="line;html=1;strokeWidth=1;align=left;verticalAlign=middle;spacingTop=-1;spacingLeft=3;spacingRight=3;rotatable=0;labelPosition=right;points=[];portConstraint=eastwest;" vertex="1" parent="FMQ1t8g7UjHm1A0s9ffQ-288">
          <mxGeometry y="52" width="160" height="8" as="geometry" />
        </mxCell>
        <mxCell id="FMQ1t8g7UjHm1A0s9ffQ-291" value="医嘱ID" style="text;align=left;verticalAlign=top;spacingLeft=4;spacingRight=4;overflow=hidden;rotatable=0;points=[[0,0.5],[1,0.5]];portConstraint=eastwest;" vertex="1" parent="FMQ1t8g7UjHm1A0s9ffQ-288">
          <mxGeometry y="60" width="160" height="26" as="geometry" />
        </mxCell>
        <mxCell id="FMQ1t8g7UjHm1A0s9ffQ-292" value="预约信息" style="swimlane;fontStyle=0;align=center;verticalAlign=top;childLayout=stackLayout;horizontal=1;startSize=26;horizontalStack=0;resizeParent=1;resizeLast=0;collapsible=1;marginBottom=0;rounded=0;shadow=0;strokeWidth=1;" vertex="1" parent="WIyWlLk6GJQsqaUBKTNV-1">
          <mxGeometry x="190" y="1197.9099999999999" width="160" height="138" as="geometry">
            <mxRectangle x="130" y="380" width="160" height="26" as="alternateBounds" />
          </mxGeometry>
        </mxCell>
        <mxCell id="FMQ1t8g7UjHm1A0s9ffQ-293" value="预约ID" style="text;align=left;verticalAlign=top;spacingLeft=4;spacingRight=4;overflow=hidden;rotatable=0;points=[[0,0.5],[1,0.5]];portConstraint=eastwest;" vertex="1" parent="FMQ1t8g7UjHm1A0s9ffQ-292">
          <mxGeometry y="26" width="160" height="26" as="geometry" />
        </mxCell>
        <mxCell id="FMQ1t8g7UjHm1A0s9ffQ-294" value="" style="line;html=1;strokeWidth=1;align=left;verticalAlign=middle;spacingTop=-1;spacingLeft=3;spacingRight=3;rotatable=0;labelPosition=right;points=[];portConstraint=eastwest;" vertex="1" parent="FMQ1t8g7UjHm1A0s9ffQ-292">
          <mxGeometry y="52" width="160" height="8" as="geometry" />
        </mxCell>
        <mxCell id="FMQ1t8g7UjHm1A0s9ffQ-295" value="申请单ID" style="text;align=left;verticalAlign=top;spacingLeft=4;spacingRight=4;overflow=hidden;rotatable=0;points=[[0,0.5],[1,0.5]];portConstraint=eastwest;fontStyle=4" vertex="1" parent="FMQ1t8g7UjHm1A0s9ffQ-292">
          <mxGeometry y="60" width="160" height="26" as="geometry" />
        </mxCell>
        <mxCell id="FMQ1t8g7UjHm1A0s9ffQ-296" value="号源ID" style="text;align=left;verticalAlign=top;spacingLeft=4;spacingRight=4;overflow=hidden;rotatable=0;points=[[0,0.5],[1,0.5]];portConstraint=eastwest;fontStyle=4" vertex="1" parent="FMQ1t8g7UjHm1A0s9ffQ-292">
          <mxGeometry y="86" width="160" height="26" as="geometry" />
        </mxCell>
        <mxCell id="FMQ1t8g7UjHm1A0s9ffQ-297" value="医嘱" style="swimlane;fontStyle=0;align=center;verticalAlign=top;childLayout=stackLayout;horizontal=1;startSize=26;horizontalStack=0;resizeParent=1;resizeLast=0;collapsible=1;marginBottom=0;rounded=0;shadow=0;strokeWidth=1;" vertex="1" parent="WIyWlLk6GJQsqaUBKTNV-1">
          <mxGeometry x="487" y="750" width="160" height="110" as="geometry">
            <mxRectangle x="550" y="140" width="160" height="26" as="alternateBounds" />
          </mxGeometry>
        </mxCell>
        <mxCell id="FMQ1t8g7UjHm1A0s9ffQ-298" value="医嘱ID" style="text;align=left;verticalAlign=top;spacingLeft=4;spacingRight=4;overflow=hidden;rotatable=0;points=[[0,0.5],[1,0.5]];portConstraint=eastwest;" vertex="1" parent="FMQ1t8g7UjHm1A0s9ffQ-297">
          <mxGeometry y="26" width="160" height="26" as="geometry" />
        </mxCell>
        <mxCell id="FMQ1t8g7UjHm1A0s9ffQ-299" value="" style="line;html=1;strokeWidth=1;align=left;verticalAlign=middle;spacingTop=-1;spacingLeft=3;spacingRight=3;rotatable=0;labelPosition=right;points=[];portConstraint=eastwest;" vertex="1" parent="FMQ1t8g7UjHm1A0s9ffQ-297">
          <mxGeometry y="52" width="160" height="8" as="geometry" />
        </mxCell>
        <mxCell id="FMQ1t8g7UjHm1A0s9ffQ-300" value="患者ID" style="text;align=left;verticalAlign=top;spacingLeft=4;spacingRight=4;overflow=hidden;rotatable=0;points=[[0,0.5],[1,0.5]];portConstraint=eastwest;" vertex="1" parent="FMQ1t8g7UjHm1A0s9ffQ-297">
          <mxGeometry y="60" width="160" height="26" as="geometry" />
        </mxCell>
        <mxCell id="FMQ1t8g7UjHm1A0s9ffQ-301" value="" style="endArrow=open;shadow=0;strokeWidth=1;rounded=0;endFill=1;edgeStyle=elbowEdgeStyle;elbow=vertical;entryX=1;entryY=0.5;entryDx=0;entryDy=0;exitX=0;exitY=0.5;exitDx=0;exitDy=0;" edge="1" parent="WIyWlLk6GJQsqaUBKTNV-1" source="FMQ1t8g7UjHm1A0s9ffQ-300" target="FMQ1t8g7UjHm1A0s9ffQ-291">
          <mxGeometry x="0.5" y="41" relative="1" as="geometry">
            <mxPoint x="379" y="670" as="sourcePoint" />
            <mxPoint x="519" y="822" as="targetPoint" />
            <mxPoint x="-40" y="32" as="offset" />
          </mxGeometry>
        </mxCell>
        <mxCell id="FMQ1t8g7UjHm1A0s9ffQ-302" value="1" style="resizable=0;align=left;verticalAlign=bottom;labelBackgroundColor=none;fontSize=12;" connectable="0" vertex="1" parent="FMQ1t8g7UjHm1A0s9ffQ-301">
          <mxGeometry x="-1" relative="1" as="geometry">
            <mxPoint x="-18" y="-3" as="offset" />
          </mxGeometry>
        </mxCell>
        <mxCell id="FMQ1t8g7UjHm1A0s9ffQ-303" value="0..1" style="resizable=0;align=right;verticalAlign=bottom;labelBackgroundColor=none;fontSize=12;" connectable="0" vertex="1" parent="FMQ1t8g7UjHm1A0s9ffQ-301">
          <mxGeometry x="1" relative="1" as="geometry">
            <mxPoint x="34" y="-3" as="offset" />
          </mxGeometry>
        </mxCell>
        <mxCell id="FMQ1t8g7UjHm1A0s9ffQ-304" value="医技报告" style="swimlane;fontStyle=0;align=center;verticalAlign=top;childLayout=stackLayout;horizontal=1;startSize=26;horizontalStack=0;resizeParent=1;resizeLast=0;collapsible=1;marginBottom=0;rounded=0;shadow=0;strokeWidth=1;" vertex="1" parent="WIyWlLk6GJQsqaUBKTNV-1">
          <mxGeometry x="-40" y="660" width="160" height="138" as="geometry">
            <mxRectangle x="130" y="380" width="160" height="26" as="alternateBounds" />
          </mxGeometry>
        </mxCell>
        <mxCell id="FMQ1t8g7UjHm1A0s9ffQ-305" value="报告ID" style="text;align=left;verticalAlign=top;spacingLeft=4;spacingRight=4;overflow=hidden;rotatable=0;points=[[0,0.5],[1,0.5]];portConstraint=eastwest;" vertex="1" parent="FMQ1t8g7UjHm1A0s9ffQ-304">
          <mxGeometry y="26" width="160" height="26" as="geometry" />
        </mxCell>
        <mxCell id="FMQ1t8g7UjHm1A0s9ffQ-306" value="" style="line;html=1;strokeWidth=1;align=left;verticalAlign=middle;spacingTop=-1;spacingLeft=3;spacingRight=3;rotatable=0;labelPosition=right;points=[];portConstraint=eastwest;" vertex="1" parent="FMQ1t8g7UjHm1A0s9ffQ-304">
          <mxGeometry y="52" width="160" height="8" as="geometry" />
        </mxCell>
        <mxCell id="FMQ1t8g7UjHm1A0s9ffQ-307" value="申请单ID" style="text;align=left;verticalAlign=top;spacingLeft=4;spacingRight=4;overflow=hidden;rotatable=0;points=[[0,0.5],[1,0.5]];portConstraint=eastwest;fontStyle=4" vertex="1" parent="FMQ1t8g7UjHm1A0s9ffQ-304">
          <mxGeometry y="60" width="160" height="26" as="geometry" />
        </mxCell>
        <mxCell id="FMQ1t8g7UjHm1A0s9ffQ-308" value="" style="endArrow=classic;html=1;exitX=0.5;exitY=1;exitDx=0;exitDy=0;entryX=0.5;entryY=0;entryDx=0;entryDy=0;" edge="1" parent="WIyWlLk6GJQsqaUBKTNV-1" source="FMQ1t8g7UjHm1A0s9ffQ-336" target="FMQ1t8g7UjHm1A0s9ffQ-292">
          <mxGeometry relative="1" as="geometry">
            <mxPoint x="159" y="940" as="sourcePoint" />
            <mxPoint x="259" y="940" as="targetPoint" />
          </mxGeometry>
        </mxCell>
        <mxCell id="FMQ1t8g7UjHm1A0s9ffQ-309" value="预约" style="edgeLabel;resizable=0;html=1;align=center;verticalAlign=middle;" connectable="0" vertex="1" parent="FMQ1t8g7UjHm1A0s9ffQ-308">
          <mxGeometry relative="1" as="geometry" />
        </mxCell>
        <mxCell id="FMQ1t8g7UjHm1A0s9ffQ-310" value="1" style="edgeLabel;html=1;align=center;verticalAlign=middle;resizable=0;points=[];" vertex="1" connectable="0" parent="FMQ1t8g7UjHm1A0s9ffQ-308">
          <mxGeometry x="-0.812" y="-1" relative="1" as="geometry">
            <mxPoint as="offset" />
          </mxGeometry>
        </mxCell>
        <mxCell id="FMQ1t8g7UjHm1A0s9ffQ-311" value="0..*" style="edgeLabel;html=1;align=center;verticalAlign=middle;resizable=0;points=[];" vertex="1" connectable="0" parent="FMQ1t8g7UjHm1A0s9ffQ-308">
          <mxGeometry x="0.792" y="-1" relative="1" as="geometry">
            <mxPoint x="-11" y="-8" as="offset" />
          </mxGeometry>
        </mxCell>
        <mxCell id="FMQ1t8g7UjHm1A0s9ffQ-312" value="" style="endArrow=classic;html=1;entryX=1;entryY=0.5;entryDx=0;entryDy=0;exitX=0;exitY=0.5;exitDx=0;exitDy=0;" edge="1" parent="WIyWlLk6GJQsqaUBKTNV-1" target="FMQ1t8g7UjHm1A0s9ffQ-307" source="FMQ1t8g7UjHm1A0s9ffQ-291">
          <mxGeometry relative="1" as="geometry">
            <mxPoint x="279" y="890" as="sourcePoint" />
            <mxPoint x="219" y="1000" as="targetPoint" />
          </mxGeometry>
        </mxCell>
        <mxCell id="FMQ1t8g7UjHm1A0s9ffQ-313" value="1" style="edgeLabel;html=1;align=center;verticalAlign=middle;resizable=0;points=[];" vertex="1" connectable="0" parent="FMQ1t8g7UjHm1A0s9ffQ-312">
          <mxGeometry x="-0.7529" y="-1" relative="1" as="geometry">
            <mxPoint as="offset" />
          </mxGeometry>
        </mxCell>
        <mxCell id="FMQ1t8g7UjHm1A0s9ffQ-314" value="0..*" style="edgeLabel;html=1;align=center;verticalAlign=middle;resizable=0;points=[];" vertex="1" connectable="0" parent="FMQ1t8g7UjHm1A0s9ffQ-312">
          <mxGeometry x="0.743" relative="1" as="geometry">
            <mxPoint x="9" y="-8" as="offset" />
          </mxGeometry>
        </mxCell>
        <mxCell id="FMQ1t8g7UjHm1A0s9ffQ-316" value="签到信息" style="swimlane;fontStyle=0;align=center;verticalAlign=top;childLayout=stackLayout;horizontal=1;startSize=26;horizontalStack=0;resizeParent=1;resizeLast=0;collapsible=1;marginBottom=0;rounded=0;shadow=0;strokeWidth=1;" vertex="1" parent="WIyWlLk6GJQsqaUBKTNV-1">
          <mxGeometry x="-20" y="1192.51" width="160" height="138" as="geometry">
            <mxRectangle x="130" y="380" width="160" height="26" as="alternateBounds" />
          </mxGeometry>
        </mxCell>
        <mxCell id="FMQ1t8g7UjHm1A0s9ffQ-317" value="签到ID" style="text;align=left;verticalAlign=top;spacingLeft=4;spacingRight=4;overflow=hidden;rotatable=0;points=[[0,0.5],[1,0.5]];portConstraint=eastwest;" vertex="1" parent="FMQ1t8g7UjHm1A0s9ffQ-316">
          <mxGeometry y="26" width="160" height="26" as="geometry" />
        </mxCell>
        <mxCell id="FMQ1t8g7UjHm1A0s9ffQ-318" value="" style="line;html=1;strokeWidth=1;align=left;verticalAlign=middle;spacingTop=-1;spacingLeft=3;spacingRight=3;rotatable=0;labelPosition=right;points=[];portConstraint=eastwest;" vertex="1" parent="FMQ1t8g7UjHm1A0s9ffQ-316">
          <mxGeometry y="52" width="160" height="8" as="geometry" />
        </mxCell>
        <mxCell id="FMQ1t8g7UjHm1A0s9ffQ-319" value="申请单ID" style="text;align=left;verticalAlign=top;spacingLeft=4;spacingRight=4;overflow=hidden;rotatable=0;points=[[0,0.5],[1,0.5]];portConstraint=eastwest;fontStyle=4" vertex="1" parent="FMQ1t8g7UjHm1A0s9ffQ-316">
          <mxGeometry y="60" width="160" height="26" as="geometry" />
        </mxCell>
        <mxCell id="FMQ1t8g7UjHm1A0s9ffQ-320" value="" style="endArrow=classic;html=1;entryX=0.25;entryY=0;entryDx=0;entryDy=0;exitX=0.5;exitY=1;exitDx=0;exitDy=0;" edge="1" parent="WIyWlLk6GJQsqaUBKTNV-1" target="FMQ1t8g7UjHm1A0s9ffQ-316">
          <mxGeometry relative="1" as="geometry">
            <mxPoint x="150" y="1128" as="sourcePoint" />
            <mxPoint x="20" y="1192.51" as="targetPoint" />
            <Array as="points">
              <mxPoint x="90" y="1160" />
            </Array>
          </mxGeometry>
        </mxCell>
        <mxCell id="FMQ1t8g7UjHm1A0s9ffQ-321" value="签到" style="edgeLabel;resizable=0;html=1;align=center;verticalAlign=middle;" connectable="0" vertex="1" parent="FMQ1t8g7UjHm1A0s9ffQ-320">
          <mxGeometry relative="1" as="geometry">
            <mxPoint x="40" as="offset" />
          </mxGeometry>
        </mxCell>
        <mxCell id="FMQ1t8g7UjHm1A0s9ffQ-322" value="1" style="edgeLabel;html=1;align=center;verticalAlign=middle;resizable=0;points=[];" vertex="1" connectable="0" parent="FMQ1t8g7UjHm1A0s9ffQ-320">
          <mxGeometry x="-0.812" y="-1" relative="1" as="geometry">
            <mxPoint as="offset" />
          </mxGeometry>
        </mxCell>
        <mxCell id="FMQ1t8g7UjHm1A0s9ffQ-323" value="0..*" style="edgeLabel;html=1;align=center;verticalAlign=middle;resizable=0;points=[];" vertex="1" connectable="0" parent="FMQ1t8g7UjHm1A0s9ffQ-320">
          <mxGeometry x="0.792" y="-1" relative="1" as="geometry">
            <mxPoint x="29" y="-8" as="offset" />
          </mxGeometry>
        </mxCell>
        <mxCell id="FMQ1t8g7UjHm1A0s9ffQ-324" value="危急值" style="swimlane;fontStyle=0;align=center;verticalAlign=top;childLayout=stackLayout;horizontal=1;startSize=26;horizontalStack=0;resizeParent=1;resizeLast=0;collapsible=1;marginBottom=0;rounded=0;shadow=0;strokeWidth=1;" vertex="1" parent="WIyWlLk6GJQsqaUBKTNV-1">
          <mxGeometry x="-39" y="821.1999999999999" width="160" height="138" as="geometry">
            <mxRectangle x="130" y="380" width="160" height="26" as="alternateBounds" />
          </mxGeometry>
        </mxCell>
        <mxCell id="FMQ1t8g7UjHm1A0s9ffQ-325" value="危急值主体ID" style="text;align=left;verticalAlign=top;spacingLeft=4;spacingRight=4;overflow=hidden;rotatable=0;points=[[0,0.5],[1,0.5]];portConstraint=eastwest;" vertex="1" parent="FMQ1t8g7UjHm1A0s9ffQ-324">
          <mxGeometry y="26" width="160" height="26" as="geometry" />
        </mxCell>
        <mxCell id="FMQ1t8g7UjHm1A0s9ffQ-326" value="" style="line;html=1;strokeWidth=1;align=left;verticalAlign=middle;spacingTop=-1;spacingLeft=3;spacingRight=3;rotatable=0;labelPosition=right;points=[];portConstraint=eastwest;" vertex="1" parent="FMQ1t8g7UjHm1A0s9ffQ-324">
          <mxGeometry y="52" width="160" height="8" as="geometry" />
        </mxCell>
        <mxCell id="FMQ1t8g7UjHm1A0s9ffQ-327" value="申请单ID" style="text;align=left;verticalAlign=top;spacingLeft=4;spacingRight=4;overflow=hidden;rotatable=0;points=[[0,0.5],[1,0.5]];portConstraint=eastwest;fontStyle=4" vertex="1" parent="FMQ1t8g7UjHm1A0s9ffQ-324">
          <mxGeometry y="60" width="160" height="26" as="geometry" />
        </mxCell>
        <mxCell id="FMQ1t8g7UjHm1A0s9ffQ-328" value="0..1" style="edgeLabel;html=1;align=center;verticalAlign=middle;resizable=0;points=[];" vertex="1" connectable="0" parent="WIyWlLk6GJQsqaUBKTNV-1">
          <mxGeometry x="159.99635579829626" y="870.0048592336345" as="geometry">
            <mxPoint x="-20" y="3" as="offset" />
          </mxGeometry>
        </mxCell>
        <mxCell id="FMQ1t8g7UjHm1A0s9ffQ-329" value="" style="endArrow=classic;html=1;entryX=1;entryY=0.5;entryDx=0;entryDy=0;exitX=0;exitY=0.5;exitDx=0;exitDy=0;" edge="1" parent="WIyWlLk6GJQsqaUBKTNV-1" target="FMQ1t8g7UjHm1A0s9ffQ-327" source="FMQ1t8g7UjHm1A0s9ffQ-291">
          <mxGeometry relative="1" as="geometry">
            <mxPoint x="279" y="890" as="sourcePoint" />
            <mxPoint x="699" y="990" as="targetPoint" />
          </mxGeometry>
        </mxCell>
        <mxCell id="FMQ1t8g7UjHm1A0s9ffQ-330" value="1" style="edgeLabel;html=1;align=center;verticalAlign=middle;resizable=0;points=[];" vertex="1" connectable="0" parent="FMQ1t8g7UjHm1A0s9ffQ-329">
          <mxGeometry x="-0.7529" y="-1" relative="1" as="geometry">
            <mxPoint as="offset" />
          </mxGeometry>
        </mxCell>
        <mxCell id="FMQ1t8g7UjHm1A0s9ffQ-336" value="检查申请单" style="swimlane;fontStyle=0;align=center;verticalAlign=top;childLayout=stackLayout;horizontal=1;startSize=26;horizontalStack=0;resizeParent=1;resizeLast=0;collapsible=1;marginBottom=0;rounded=0;shadow=0;strokeWidth=1;" vertex="1" parent="WIyWlLk6GJQsqaUBKTNV-1">
          <mxGeometry x="70" y="989.9999999999999" width="160" height="138" as="geometry">
            <mxRectangle x="130" y="380" width="160" height="26" as="alternateBounds" />
          </mxGeometry>
        </mxCell>
        <mxCell id="FMQ1t8g7UjHm1A0s9ffQ-337" value="申请单ID" style="text;align=left;verticalAlign=top;spacingLeft=4;spacingRight=4;overflow=hidden;rotatable=0;points=[[0,0.5],[1,0.5]];portConstraint=eastwest;" vertex="1" parent="FMQ1t8g7UjHm1A0s9ffQ-336">
          <mxGeometry y="26" width="160" height="26" as="geometry" />
        </mxCell>
        <mxCell id="FMQ1t8g7UjHm1A0s9ffQ-338" value="" style="line;html=1;strokeWidth=1;align=left;verticalAlign=middle;spacingTop=-1;spacingLeft=3;spacingRight=3;rotatable=0;labelPosition=right;points=[];portConstraint=eastwest;" vertex="1" parent="FMQ1t8g7UjHm1A0s9ffQ-336">
          <mxGeometry y="52" width="160" height="8" as="geometry" />
        </mxCell>
        <mxCell id="FMQ1t8g7UjHm1A0s9ffQ-339" value="医嘱ID" style="text;align=left;verticalAlign=top;spacingLeft=4;spacingRight=4;overflow=hidden;rotatable=0;points=[[0,0.5],[1,0.5]];portConstraint=eastwest;fontStyle=4" vertex="1" parent="FMQ1t8g7UjHm1A0s9ffQ-336">
          <mxGeometry y="60" width="160" height="26" as="geometry" />
        </mxCell>
        <mxCell id="FMQ1t8g7UjHm1A0s9ffQ-341" value="检验申请单" style="swimlane;fontStyle=0;align=center;verticalAlign=top;childLayout=stackLayout;horizontal=1;startSize=26;horizontalStack=0;resizeParent=1;resizeLast=0;collapsible=1;marginBottom=0;rounded=0;shadow=0;strokeWidth=1;" vertex="1" parent="WIyWlLk6GJQsqaUBKTNV-1">
          <mxGeometry x="300" y="989.9999999999999" width="160" height="138" as="geometry">
            <mxRectangle x="130" y="380" width="160" height="26" as="alternateBounds" />
          </mxGeometry>
        </mxCell>
        <mxCell id="FMQ1t8g7UjHm1A0s9ffQ-364" value="Extends" style="endArrow=block;endSize=16;endFill=0;html=1;exitX=0.544;exitY=-0.007;exitDx=0;exitDy=0;exitPerimeter=0;" edge="1" parent="FMQ1t8g7UjHm1A0s9ffQ-341" source="FMQ1t8g7UjHm1A0s9ffQ-346">
          <mxGeometry width="160" relative="1" as="geometry">
            <mxPoint x="90" y="42.000000000000114" as="sourcePoint" />
            <mxPoint x="-10" y="-99.99999999999989" as="targetPoint" />
          </mxGeometry>
        </mxCell>
        <mxCell id="FMQ1t8g7UjHm1A0s9ffQ-342" value="申请单ID" style="text;align=left;verticalAlign=top;spacingLeft=4;spacingRight=4;overflow=hidden;rotatable=0;points=[[0,0.5],[1,0.5]];portConstraint=eastwest;" vertex="1" parent="FMQ1t8g7UjHm1A0s9ffQ-341">
          <mxGeometry y="26" width="160" height="26" as="geometry" />
        </mxCell>
        <mxCell id="FMQ1t8g7UjHm1A0s9ffQ-343" value="" style="line;html=1;strokeWidth=1;align=left;verticalAlign=middle;spacingTop=-1;spacingLeft=3;spacingRight=3;rotatable=0;labelPosition=right;points=[];portConstraint=eastwest;" vertex="1" parent="FMQ1t8g7UjHm1A0s9ffQ-341">
          <mxGeometry y="52" width="160" height="8" as="geometry" />
        </mxCell>
        <mxCell id="FMQ1t8g7UjHm1A0s9ffQ-344" value="医嘱ID" style="text;align=left;verticalAlign=top;spacingLeft=4;spacingRight=4;overflow=hidden;rotatable=0;points=[[0,0.5],[1,0.5]];portConstraint=eastwest;fontStyle=4" vertex="1" parent="FMQ1t8g7UjHm1A0s9ffQ-341">
          <mxGeometry y="60" width="160" height="26" as="geometry" />
        </mxCell>
        <mxCell id="FMQ1t8g7UjHm1A0s9ffQ-346" value="病理申请单" style="swimlane;fontStyle=0;align=center;verticalAlign=top;childLayout=stackLayout;horizontal=1;startSize=26;horizontalStack=0;resizeParent=1;resizeLast=0;collapsible=1;marginBottom=0;rounded=0;shadow=0;strokeWidth=1;" vertex="1" parent="WIyWlLk6GJQsqaUBKTNV-1">
          <mxGeometry x="530" y="990" width="160" height="138" as="geometry">
            <mxRectangle x="130" y="380" width="160" height="26" as="alternateBounds" />
          </mxGeometry>
        </mxCell>
        <mxCell id="FMQ1t8g7UjHm1A0s9ffQ-347" value="申请单ID" style="text;align=left;verticalAlign=top;spacingLeft=4;spacingRight=4;overflow=hidden;rotatable=0;points=[[0,0.5],[1,0.5]];portConstraint=eastwest;" vertex="1" parent="FMQ1t8g7UjHm1A0s9ffQ-346">
          <mxGeometry y="26" width="160" height="26" as="geometry" />
        </mxCell>
        <mxCell id="FMQ1t8g7UjHm1A0s9ffQ-348" value="" style="line;html=1;strokeWidth=1;align=left;verticalAlign=middle;spacingTop=-1;spacingLeft=3;spacingRight=3;rotatable=0;labelPosition=right;points=[];portConstraint=eastwest;" vertex="1" parent="FMQ1t8g7UjHm1A0s9ffQ-346">
          <mxGeometry y="52" width="160" height="8" as="geometry" />
        </mxCell>
        <mxCell id="FMQ1t8g7UjHm1A0s9ffQ-349" value="医嘱ID" style="text;align=left;verticalAlign=top;spacingLeft=4;spacingRight=4;overflow=hidden;rotatable=0;points=[[0,0.5],[1,0.5]];portConstraint=eastwest;fontStyle=4" vertex="1" parent="FMQ1t8g7UjHm1A0s9ffQ-346">
          <mxGeometry y="60" width="160" height="26" as="geometry" />
        </mxCell>
        <mxCell id="FMQ1t8g7UjHm1A0s9ffQ-362" value="Extends" style="endArrow=block;endSize=16;endFill=0;html=1;entryX=0.5;entryY=1;entryDx=0;entryDy=0;exitX=0.5;exitY=0;exitDx=0;exitDy=0;" edge="1" parent="WIyWlLk6GJQsqaUBKTNV-1" source="FMQ1t8g7UjHm1A0s9ffQ-336" target="FMQ1t8g7UjHm1A0s9ffQ-288">
          <mxGeometry width="160" relative="1" as="geometry">
            <mxPoint x="140" y="920" as="sourcePoint" />
            <mxPoint x="280" y="920" as="targetPoint" />
          </mxGeometry>
        </mxCell>
        <mxCell id="FMQ1t8g7UjHm1A0s9ffQ-363" value="Extends" style="endArrow=block;endSize=16;endFill=0;html=1;exitX=0.5;exitY=0;exitDx=0;exitDy=0;" edge="1" parent="WIyWlLk6GJQsqaUBKTNV-1" source="FMQ1t8g7UjHm1A0s9ffQ-341">
          <mxGeometry width="160" relative="1" as="geometry">
            <mxPoint x="160" y="1000" as="sourcePoint" />
            <mxPoint x="280" y="890" as="targetPoint" />
          </mxGeometry>
        </mxCell>
        <mxCell id="FMQ1t8g7UjHm1A0s9ffQ-365" value="部位信息" style="swimlane;fontStyle=0;align=center;verticalAlign=top;childLayout=stackLayout;horizontal=1;startSize=26;horizontalStack=0;resizeParent=1;resizeLast=0;collapsible=1;marginBottom=0;rounded=0;shadow=0;strokeWidth=1;" vertex="1" parent="WIyWlLk6GJQsqaUBKTNV-1">
          <mxGeometry x="-240" y="1195.3" width="160" height="138" as="geometry">
            <mxRectangle x="130" y="380" width="160" height="26" as="alternateBounds" />
          </mxGeometry>
        </mxCell>
        <mxCell id="FMQ1t8g7UjHm1A0s9ffQ-366" value="部位ID" style="text;align=left;verticalAlign=top;spacingLeft=4;spacingRight=4;overflow=hidden;rotatable=0;points=[[0,0.5],[1,0.5]];portConstraint=eastwest;" vertex="1" parent="FMQ1t8g7UjHm1A0s9ffQ-365">
          <mxGeometry y="26" width="160" height="26" as="geometry" />
        </mxCell>
        <mxCell id="FMQ1t8g7UjHm1A0s9ffQ-367" value="" style="line;html=1;strokeWidth=1;align=left;verticalAlign=middle;spacingTop=-1;spacingLeft=3;spacingRight=3;rotatable=0;labelPosition=right;points=[];portConstraint=eastwest;" vertex="1" parent="FMQ1t8g7UjHm1A0s9ffQ-365">
          <mxGeometry y="52" width="160" height="8" as="geometry" />
        </mxCell>
        <mxCell id="FMQ1t8g7UjHm1A0s9ffQ-368" value="申请单ID" style="text;align=left;verticalAlign=top;spacingLeft=4;spacingRight=4;overflow=hidden;rotatable=0;points=[[0,0.5],[1,0.5]];portConstraint=eastwest;fontStyle=4" vertex="1" parent="FMQ1t8g7UjHm1A0s9ffQ-365">
          <mxGeometry y="60" width="160" height="26" as="geometry" />
        </mxCell>
        <mxCell id="FMQ1t8g7UjHm1A0s9ffQ-370" value="" style="endArrow=classic;html=1;exitX=0.5;exitY=1;exitDx=0;exitDy=0;entryX=0.5;entryY=0;entryDx=0;entryDy=0;" edge="1" parent="WIyWlLk6GJQsqaUBKTNV-1" source="FMQ1t8g7UjHm1A0s9ffQ-336" target="FMQ1t8g7UjHm1A0s9ffQ-365">
          <mxGeometry relative="1" as="geometry">
            <mxPoint x="-127" y="1040" as="sourcePoint" />
            <mxPoint x="-7" y="1109.9099999999999" as="targetPoint" />
          </mxGeometry>
        </mxCell>
        <mxCell id="FMQ1t8g7UjHm1A0s9ffQ-372" value="1" style="edgeLabel;html=1;align=center;verticalAlign=middle;resizable=0;points=[];" vertex="1" connectable="0" parent="FMQ1t8g7UjHm1A0s9ffQ-370">
          <mxGeometry x="-0.812" y="-1" relative="1" as="geometry">
            <mxPoint as="offset" />
          </mxGeometry>
        </mxCell>
        <mxCell id="FMQ1t8g7UjHm1A0s9ffQ-374" value="样本信息" style="swimlane;fontStyle=0;align=center;verticalAlign=top;childLayout=stackLayout;horizontal=1;startSize=26;horizontalStack=0;resizeParent=1;resizeLast=0;collapsible=1;marginBottom=0;rounded=0;shadow=0;strokeWidth=1;" vertex="1" parent="WIyWlLk6GJQsqaUBKTNV-1">
          <mxGeometry x="420" y="1200" width="160" height="138" as="geometry">
            <mxRectangle x="130" y="380" width="160" height="26" as="alternateBounds" />
          </mxGeometry>
        </mxCell>
        <mxCell id="FMQ1t8g7UjHm1A0s9ffQ-375" value="样本号" style="text;align=left;verticalAlign=top;spacingLeft=4;spacingRight=4;overflow=hidden;rotatable=0;points=[[0,0.5],[1,0.5]];portConstraint=eastwest;" vertex="1" parent="FMQ1t8g7UjHm1A0s9ffQ-374">
          <mxGeometry y="26" width="160" height="26" as="geometry" />
        </mxCell>
        <mxCell id="FMQ1t8g7UjHm1A0s9ffQ-376" value="" style="line;html=1;strokeWidth=1;align=left;verticalAlign=middle;spacingTop=-1;spacingLeft=3;spacingRight=3;rotatable=0;labelPosition=right;points=[];portConstraint=eastwest;" vertex="1" parent="FMQ1t8g7UjHm1A0s9ffQ-374">
          <mxGeometry y="52" width="160" height="8" as="geometry" />
        </mxCell>
        <mxCell id="FMQ1t8g7UjHm1A0s9ffQ-377" value="申请单ID" style="text;align=left;verticalAlign=top;spacingLeft=4;spacingRight=4;overflow=hidden;rotatable=0;points=[[0,0.5],[1,0.5]];portConstraint=eastwest;fontStyle=4" vertex="1" parent="FMQ1t8g7UjHm1A0s9ffQ-374">
          <mxGeometry y="60" width="160" height="26" as="geometry" />
        </mxCell>
        <mxCell id="FMQ1t8g7UjHm1A0s9ffQ-378" value="" style="endArrow=classic;html=1;exitX=0.5;exitY=1;exitDx=0;exitDy=0;entryX=0.5;entryY=0;entryDx=0;entryDy=0;" edge="1" parent="WIyWlLk6GJQsqaUBKTNV-1">
          <mxGeometry relative="1" as="geometry">
            <mxPoint x="380" y="1130.09" as="sourcePoint" />
            <mxPoint x="500" y="1199.9999999999998" as="targetPoint" />
          </mxGeometry>
        </mxCell>
        <mxCell id="FMQ1t8g7UjHm1A0s9ffQ-382" value="标本信息" style="swimlane;fontStyle=0;align=center;verticalAlign=top;childLayout=stackLayout;horizontal=1;startSize=26;horizontalStack=0;resizeParent=1;resizeLast=0;collapsible=1;marginBottom=0;rounded=0;shadow=0;strokeWidth=1;" vertex="1" parent="WIyWlLk6GJQsqaUBKTNV-1">
          <mxGeometry x="649.27" y="1192.5" width="160" height="138" as="geometry">
            <mxRectangle x="130" y="380" width="160" height="26" as="alternateBounds" />
          </mxGeometry>
        </mxCell>
        <mxCell id="FMQ1t8g7UjHm1A0s9ffQ-383" value="标本号" style="text;align=left;verticalAlign=top;spacingLeft=4;spacingRight=4;overflow=hidden;rotatable=0;points=[[0,0.5],[1,0.5]];portConstraint=eastwest;" vertex="1" parent="FMQ1t8g7UjHm1A0s9ffQ-382">
          <mxGeometry y="26" width="160" height="26" as="geometry" />
        </mxCell>
        <mxCell id="FMQ1t8g7UjHm1A0s9ffQ-384" value="" style="line;html=1;strokeWidth=1;align=left;verticalAlign=middle;spacingTop=-1;spacingLeft=3;spacingRight=3;rotatable=0;labelPosition=right;points=[];portConstraint=eastwest;" vertex="1" parent="FMQ1t8g7UjHm1A0s9ffQ-382">
          <mxGeometry y="52" width="160" height="8" as="geometry" />
        </mxCell>
        <mxCell id="FMQ1t8g7UjHm1A0s9ffQ-385" value="申请单ID" style="text;align=left;verticalAlign=top;spacingLeft=4;spacingRight=4;overflow=hidden;rotatable=0;points=[[0,0.5],[1,0.5]];portConstraint=eastwest;fontStyle=4" vertex="1" parent="FMQ1t8g7UjHm1A0s9ffQ-382">
          <mxGeometry y="60" width="160" height="26" as="geometry" />
        </mxCell>
        <mxCell id="FMQ1t8g7UjHm1A0s9ffQ-388" value="" style="endArrow=classic;html=1;exitX=0.5;exitY=1;exitDx=0;exitDy=0;entryX=0.5;entryY=0;entryDx=0;entryDy=0;" edge="1" parent="WIyWlLk6GJQsqaUBKTNV-1">
          <mxGeometry relative="1" as="geometry">
            <mxPoint x="610" y="1125.3899999999999" as="sourcePoint" />
            <mxPoint x="730" y="1195.2999999999997" as="targetPoint" />
          </mxGeometry>
        </mxCell>
        <mxCell id="FMQ1t8g7UjHm1A0s9ffQ-389" value="1" style="edgeLabel;html=1;align=center;verticalAlign=middle;resizable=0;points=[];" vertex="1" connectable="0" parent="FMQ1t8g7UjHm1A0s9ffQ-388">
          <mxGeometry x="-0.812" y="-1" relative="1" as="geometry">
            <mxPoint as="offset" />
          </mxGeometry>
        </mxCell>
        <mxCell id="FMQ1t8g7UjHm1A0s9ffQ-390" value="1..*" style="edgeLabel;html=1;align=center;verticalAlign=middle;resizable=0;points=[];" vertex="1" connectable="0" parent="FMQ1t8g7UjHm1A0s9ffQ-388">
          <mxGeometry x="0.792" y="-1" relative="1" as="geometry">
            <mxPoint x="-14" y="-8" as="offset" />
          </mxGeometry>
        </mxCell>
      </root>
    </mxGraphModel>
  </diagram>
</mxfile>
